<svg width="65" height="31" viewBox="0 0 65 31" fill="none" xmlns="http://www.w3.org/2000/svg">
<path d="M10.3197 21.3635C4.62474 21.3635 0 16.7685 0 11.1102C0 5.45192 4.62474 0.856934 10.3197 0.856934C16.0146 0.856934 20.6393 5.45192 20.6393 11.1102C20.6393 16.7685 16.0146 21.3635 10.3197 21.3635ZM10.3197 2.66075C5.63759 2.66075 1.8155 6.45826 1.8155 11.1102C1.8155 15.7622 5.63759 19.5597 10.3197 19.5597C15.0017 19.5597 18.8238 15.7622 18.8238 11.1102C18.8238 6.45826 15.0017 2.66075 10.3197 2.66075Z" fill="#0081C8"/>
<path d="M32.6793 21.3635C26.9844 21.3635 22.3596 16.7685 22.3596 11.1102C22.3596 5.45192 26.9844 0.856934 32.6793 0.856934C38.3742 0.856934 42.9989 5.45192 42.9989 11.1102C42.9989 16.7685 38.3742 21.3635 32.6793 21.3635ZM32.6793 2.66075C27.9972 2.66075 24.1751 6.45826 24.1751 11.1102C24.1751 15.7622 27.9972 19.5597 32.6793 19.5597C37.3613 19.5597 41.1834 15.7622 41.1834 11.1102C41.1834 6.45826 37.3613 2.66075 32.6793 2.66075Z" fill="black"/>
<path d="M55.0382 21.3635C49.3432 21.3635 44.7185 16.7685 44.7185 11.1102C44.7185 5.45192 49.3432 0.856934 55.0382 0.856934C60.7331 0.856934 65.3578 5.45192 65.3578 11.1102C65.3578 16.7685 60.7331 21.3635 55.0382 21.3635ZM55.0382 2.66075C50.3561 2.66075 46.534 6.45826 46.534 11.1102C46.534 15.7622 50.3561 19.5597 55.0382 19.5597C59.7202 19.5597 63.5423 15.7622 63.5423 11.1102C63.5423 6.45826 59.7202 2.66075 55.0382 2.66075Z" fill="#EE334E"/>
<path d="M21.4996 30.8566C15.8047 30.8566 11.1799 26.2617 11.1799 20.6034C11.1799 14.9451 15.8047 10.3501 21.4996 10.3501C27.1945 10.3501 31.8193 14.9451 31.8193 20.6034C31.8193 26.2617 27.1945 30.8566 21.4996 30.8566ZM21.4996 12.1539C16.8175 12.1539 12.9954 15.9514 12.9954 20.6034C12.9954 25.2553 16.8175 29.0528 21.4996 29.0528C26.1817 29.0528 30.0038 25.2553 30.0038 20.6034C30.0038 15.9514 26.1817 12.1539 21.4996 12.1539Z" fill="#FCB131"/>
<path d="M43.8582 30.8566C38.1633 30.8566 33.5386 26.2617 33.5386 20.6034C33.5386 14.9451 38.1633 10.3501 43.8582 10.3501C49.5532 10.3501 54.1779 14.9451 54.1779 20.6034C54.1779 26.2617 49.5532 30.8566 43.8582 30.8566ZM43.8582 12.1539C39.1762 12.1539 35.3541 15.9514 35.3541 20.6034C35.3541 25.2553 39.1762 29.0528 43.8582 29.0528C48.5403 29.0528 52.3624 25.2553 52.3624 20.6034C52.3624 15.9514 48.5403 12.1539 43.8582 12.1539Z" fill="#00A651"/>
<path d="M18.5759 17.2622L17.1235 16.1799C19.3786 13.1988 19.3786 9.02158 17.1235 6.04054L18.5759 4.95825C21.3087 8.58487 21.3087 13.6356 18.5759 17.2622Z" fill="#0081C8"/>
<path d="M32.6793 21.3635C30.4625 21.3635 28.2648 20.642 26.4875 19.3128L27.5768 17.8698C29.0484 18.9521 30.8447 19.5597 32.6793 19.5597V21.3635ZM40.9351 17.2622L39.4827 16.1799C41.7377 13.1988 41.7377 9.02159 39.4827 6.04054L40.9351 4.95825C43.6679 8.58487 43.6679 13.6356 40.9351 17.2622Z" fill="black"/>
<path d="M55.0382 21.3639C52.8214 21.3639 50.6237 20.6424 48.8464 19.3133L49.9357 17.8702C51.4072 18.9525 53.2036 19.5601 55.0382 19.5601V21.3639Z" fill="#EE334E"/>
</svg>
